<svg width="10" height="16" viewBox="0 0 10 16" fill="none" xmlns="http://www.w3.org/2000/svg">
<path d="M8.87322 0.343187C9.10093 0.55906 9.23036 0.853365 9.23303 1.16138C9.2357 1.4694 9.11141 1.7659 8.88747 1.9857L2.97472 7.7874L8.98729 13.4856C9.20862 13.7028 9.33258 13.9951 9.33248 14.2997C9.33238 14.6043 9.20822 14.8968 8.98675 15.1141C8.76528 15.3314 8.46422 15.4562 8.14841 15.4616C7.83259 15.467 7.5273 15.3525 7.29827 15.1429L0.426931 8.63083C0.199216 8.41496 0.0697917 8.12065 0.0671181 7.81264C0.0644445 7.50462 0.188741 7.20812 0.412674 6.98832L7.16994 0.357972C7.39394 0.138243 7.69922 0.0132495 8.01863 0.010477C8.33804 0.00770452 8.64543 0.127381 8.87322 0.343187Z" fill="#F8F6FC"/>
</svg>
