<svg width="111" height="111" viewBox="0 0 111 111" fill="none" xmlns="http://www.w3.org/2000/svg">
<g clip-path="url(#clip0_132_202)">
<mask id="mask0_132_202" style="mask-type:luminance" maskUnits="userSpaceOnUse" x="55" y="9" width="1" height="91">
<path d="M55.4144 9.17603H55.648V99.3254H55.4144V9.17603Z" fill="white"/>
</mask>
<g mask="url(#mask0_132_202)">
<path fill-rule="evenodd" clip-rule="evenodd" d="M14.4508 20.1697L55.4584 51.2566V9.19916C41.2931 9.1691 27.121 12.8252 14.4508 20.1697ZM-0.524947 38.6315C-0.524947 39.257 -1.0337 39.7635 -1.65923 39.7635C-2.28592 39.7635 -2.79235 39.2547 -2.79235 38.6315C-2.79235 38.0048 -2.28592 37.4984 -1.65923 37.4984C-1.0337 37.4984 -0.524947 38.0048 -0.524947 38.6315ZM2.14946 50.7039C2.14946 51.3294 1.64071 51.837 1.01518 51.837C0.38849 51.837 -0.119103 51.3294 -0.119103 50.7039C-0.119103 50.0772 0.387334 49.5708 1.01518 49.5708C1.64302 49.5708 2.14946 50.0772 2.14946 50.7039ZM8.8638 64.2887L10.5831 65.2819ZM6.12927 63.4643C6.12927 64.0898 5.62052 64.5974 4.99383 64.5974C4.3683 64.5974 3.85955 64.0898 3.85955 63.4643C3.85955 62.8376 4.36715 62.3312 4.99383 62.3312C5.62052 62.3312 6.12927 62.8376 6.12927 63.4643ZM8.8638 64.2887C8.92162 64.0239 8.95168 63.7453 8.95168 63.4643C8.95168 62.663 8.71349 61.9184 8.30302 61.2952C7.59424 60.2198 6.37671 59.5111 4.99268 59.5111C2.80737 59.5111 1.03368 61.2801 1.03368 63.4643C1.03368 65.6473 2.80737 67.4163 4.99268 67.4163C5.67602 67.4163 6.3189 67.2441 6.87968 66.9388L8.56549 67.9112L8.93549 68.1251L10.5843 69.0744V69.0767L11.4711 69.5878L11.7012 69.7196L11.8909 69.8283L28.438 79.3685C35.6923 87.7432 44.8301 94.6298 55.4595 99.3208V56.8852L43.7513 48.0075C41.5521 49.6517 38.8477 50.6646 35.8923 50.7663C28.1975 51.0358 21.741 45.0221 21.4739 37.3365C21.4045 35.3917 21.7386 33.5278 22.4023 31.8189L-0.209291 14.5445L9.72174 31.4789C9.81308 34.521 10.0883 37.5377 10.5346 40.5104L18.6249 45.177V48.9233L5.29215 41.2331L2.21074 39.4559C2.26855 39.1888 2.29746 38.9125 2.29746 38.6315C2.29746 37.8302 2.05812 37.0856 1.6488 36.4624C0.941178 35.3871 -0.27751 34.6783 -1.66154 34.6783C-3.84685 34.6783 -5.61938 36.4473 -5.61938 38.6315C-5.61938 40.8145 -3.84685 42.5836 -1.66154 42.5836C-0.977041 42.5836 -0.335322 42.4113 0.226615 42.106L1.91127 43.0773L2.28127 43.2912L5.04587 44.8845L6.12233 45.5054L12.3268 49.0828C12.6551 50.2946 13.0124 51.4983 13.3975 52.6903L27.402 60.7679V64.5153L7.96655 53.3066L4.88515 51.5283C4.94296 51.2635 4.97187 50.986 4.97187 50.7039C4.97187 49.9026 4.73252 49.158 4.32321 48.5348C3.61558 47.4595 2.3969 46.7507 1.01287 46.7507C-1.17245 46.7507 -2.94498 48.5198 -2.94498 50.7039C-2.94498 52.8869 -1.17245 54.656 1.01287 54.656C1.69737 54.656 2.33908 54.4837 2.90102 54.1784L4.58568 55.1508L4.95568 55.3648L7.72027 56.9592L8.79674 57.579L17.3333 62.5C18.0201 63.9198 18.7509 65.3178 19.521 66.6914L30.0764 72.779V76.5264L11.8897 66.0369V66.0358L10.641 65.3178L8.8638 64.2887ZM26.6886 34.9188L41.7568 46.5113C40.1959 47.6815 38.2765 48.403 36.1791 48.477C30.732 48.6666 26.1625 44.4104 25.9728 38.9703C25.9231 37.5388 26.1821 36.1664 26.6886 34.9188Z" fill="#5C97FF"/>
</g>
<mask id="mask1_132_202" style="mask-type:luminance" maskUnits="userSpaceOnUse" x="55" y="9" width="56" height="91">
<path d="M55.4144 9.17603H111V99.3254H55.4144V9.17603Z" fill="white"/>
</mask>
<g mask="url(#mask1_132_202)">
<path fill-rule="evenodd" clip-rule="evenodd" d="M55.4584 56.8852L67.1666 48.0075C69.3657 49.6517 72.0714 50.6646 75.0256 50.7663C82.7204 51.0358 89.1781 45.0221 89.4452 37.3365C89.5134 35.3917 89.1792 33.5278 88.5167 31.8189L111.126 14.5445L101.195 31.4789C100.32 60.628 82.8233 87.2414 55.4584 99.3208V56.8852ZM96.4636 20.1697L55.4584 51.2566V9.19916C69.6236 9.1691 83.7946 12.8252 96.4636 20.1697ZM84.2282 34.9188L69.1599 46.5113C70.7209 47.6815 72.6402 48.403 74.7377 48.477C80.1848 48.6666 84.7543 44.4104 84.9439 38.9703C84.9936 37.5388 84.7346 36.1664 84.2282 34.9188Z" fill="#3573FA"/>
</g>
<mask id="mask2_132_202" style="mask-type:luminance" maskUnits="userSpaceOnUse" x="0" y="9" width="56" height="91">
<path d="M0 9.17834H55.6168V99.3254H0V9.17834Z" fill="white"/>
</mask>
<g mask="url(#mask2_132_202)">
<path fill-rule="evenodd" clip-rule="evenodd" d="M55.6457 56.9049L43.9468 48.0237C41.7499 49.6679 39.0466 50.6808 36.0947 50.7837C28.4068 51.0519 21.9549 45.036 21.6878 37.3481C21.6184 35.4021 21.9537 33.5371 22.6151 31.8281L0.0254517 14.5468L9.94839 31.487C10.8225 60.6488 28.3039 87.2726 55.6457 99.3566V56.9049ZM14.6751 20.1743L55.6457 51.2739V9.19916C41.492 9.1691 27.3326 12.8263 14.6751 20.1743ZM26.9002 34.9303L41.9557 46.5264C40.3959 47.6965 38.4777 48.4192 36.3826 48.4932C30.9401 48.6828 26.3741 44.4255 26.1844 38.983C26.1347 37.5504 26.3937 36.1779 26.9002 34.9303Z" fill="#5C97FF"/>
</g>
</g>
<defs>
<clipPath id="clip0_132_202">
<rect width="111" height="111" fill="white"/>
</clipPath>
</defs>
</svg>
