<svg width="1024" height="1024" viewBox="0 0 1024 1024" fill="none" xmlns="http://www.w3.org/2000/svg">
<mask id="mask0_62_5" style="mask-type:luminance" maskUnits="userSpaceOnUse" x="511" y="84" width="3" height="833">
<path d="M511.211 84.6507H513.365V916.299H511.211V84.6507Z" fill="white"/>
</mask>
<g mask="url(#mask0_62_5)">
<path fill-rule="evenodd" clip-rule="evenodd" d="M133.312 186.069L511.616 472.853V84.864C380.939 84.5867 250.197 118.315 133.312 186.069ZM-4.84269 356.384C-4.84269 362.155 -9.53603 366.827 -15.3067 366.827C-21.088 366.827 -25.76 362.133 -25.76 356.384C-25.76 350.603 -21.088 345.931 -15.3067 345.931C-9.53603 345.931 -4.84269 350.603 -4.84269 356.384ZM19.8293 467.755C19.8293 473.525 15.136 478.208 9.36531 478.208C3.58397 478.208 -1.09869 473.525 -1.09869 467.755C-1.09869 461.973 3.57331 457.301 9.36531 457.301C15.1573 457.301 19.8293 461.973 19.8293 467.755ZM81.7706 593.077L97.632 602.24ZM56.544 585.472C56.544 591.243 51.8506 595.925 46.0693 595.925C40.2986 595.925 35.6053 591.243 35.6053 585.472C35.6053 579.691 40.288 575.019 46.0693 575.019C51.8506 575.019 56.544 579.691 56.544 585.472ZM81.7706 593.077C82.304 590.635 82.5813 588.064 82.5813 585.472C82.5813 578.08 80.384 571.211 76.5973 565.461C70.0586 555.541 58.8266 549.003 46.0586 549.003C25.8986 549.003 9.53597 565.323 9.53597 585.472C9.53597 605.611 25.8986 621.931 46.0586 621.931C52.3626 621.931 58.2933 620.341 63.4666 617.525L79.0186 626.496L82.432 628.469L97.6426 637.227V637.248L105.824 641.963L107.947 643.179L109.696 644.181L262.347 732.192C329.269 809.451 413.568 872.981 511.627 916.256V524.779L403.616 442.88C383.328 458.048 358.379 467.392 331.115 468.331C260.128 470.816 200.565 415.339 198.101 344.437C197.461 326.496 200.544 309.301 206.667 293.536L-1.93069 134.176L89.6853 290.4C90.528 318.464 93.0666 346.293 97.184 373.717L171.819 416.768V451.328L48.8213 380.384L20.3946 363.989C20.928 361.525 21.1946 358.976 21.1946 356.384C21.1946 348.992 18.9866 342.123 15.2106 336.373C8.68264 326.453 -2.56003 319.915 -15.328 319.915C-35.488 319.915 -51.84 336.235 -51.84 356.384C-51.84 376.523 -35.488 392.843 -15.328 392.843C-9.01336 392.843 -3.09336 391.253 2.09064 388.437L17.632 397.397L21.0453 399.371L46.5493 414.069L56.48 419.797L113.717 452.8C116.747 463.979 120.043 475.083 123.595 486.08L252.789 560.597V595.168L73.4933 491.765L45.0666 475.36C45.6 472.917 45.8666 470.357 45.8666 467.755C45.8666 460.363 43.6586 453.493 39.8826 447.744C33.3546 437.824 22.112 431.285 9.34397 431.285C-10.816 431.285 -27.168 447.605 -27.168 467.755C-27.168 487.893 -10.816 504.213 9.34397 504.213C15.6586 504.213 21.5786 502.624 26.7626 499.808L42.304 508.779L45.7173 510.752L71.2213 525.461L81.152 531.179L159.904 576.576C166.24 589.675 172.981 602.571 180.085 615.243L277.461 671.403V705.973L109.685 609.205V609.195L98.1653 602.571L81.7706 593.077ZM246.208 322.133L385.216 429.077C370.816 439.872 353.109 446.528 333.76 447.211C283.509 448.96 241.355 409.696 239.605 359.509C239.147 346.304 241.536 333.643 246.208 322.133Z" fill="#F55F38"/>
</g>
<mask id="mask1_62_5" style="mask-type:luminance" maskUnits="userSpaceOnUse" x="511" y="84" width="514" height="833">
<path d="M511.211 84.6507H1024V916.299H511.211V84.6507Z" fill="white"/>
</mask>
<g mask="url(#mask1_62_5)">
<path fill-rule="evenodd" clip-rule="evenodd" d="M511.616 524.779L619.627 442.88C639.915 458.048 664.875 467.392 692.128 468.331C763.115 470.816 822.688 415.339 825.152 344.437C825.781 326.496 822.699 309.301 816.587 293.536L1025.16 134.176L933.547 290.4C925.472 559.307 764.064 804.821 511.616 916.256V524.779ZM889.899 186.069L511.616 472.853V84.864C642.293 84.5867 773.024 118.315 889.899 186.069ZM777.024 322.133L638.016 429.077C652.416 439.872 670.123 446.528 689.472 447.211C739.723 448.96 781.877 409.696 783.627 359.509C784.085 346.304 781.696 333.643 777.024 322.133Z" fill="#E01071"/>
</g>
<mask id="mask2_62_5" style="mask-type:luminance" maskUnits="userSpaceOnUse" x="0" y="84" width="514" height="833">
<path d="M-1.52588e-05 84.672H513.077V916.299H-1.52588e-05V84.672Z" fill="white"/>
</mask>
<g mask="url(#mask2_62_5)">
<path fill-rule="evenodd" clip-rule="evenodd" d="M513.344 524.96L405.419 443.029C385.152 458.197 360.213 467.541 332.981 468.491C262.059 470.965 202.539 415.467 200.075 344.544C199.435 326.592 202.528 309.387 208.629 293.621L0.23465 134.197L91.776 290.475C99.84 559.499 261.109 805.109 513.344 916.587V524.96ZM135.381 186.112L513.344 473.013V84.864C382.773 84.5867 252.149 118.325 135.381 186.112ZM248.16 322.24L387.051 429.216C372.661 440.011 354.965 446.677 335.637 447.36C285.429 449.109 243.307 409.835 241.557 359.627C241.099 346.411 243.488 333.749 248.16 322.24Z" fill="#F55F38"/>
</g>
</svg>
