<svg width="105" height="111" viewBox="0 0 105 111" fill="none" xmlns="http://www.w3.org/2000/svg">
<g clip-path="url(#clip0_140_43)">
<mask id="mask0_140_43" style="mask-type:luminance" maskUnits="userSpaceOnUse" x="52" y="9" width="1" height="91">
<path d="M52.4191 9.17603H52.64V99.3254H52.4191V9.17603Z" fill="white"/>
</mask>
<g mask="url(#mask0_140_43)">
<path fill-rule="evenodd" clip-rule="evenodd" d="M13.6697 20.1697L52.4606 51.2566V9.19916C39.0611 9.1691 25.655 12.8252 13.6697 20.1697ZM-0.49655 38.6315C-0.49655 39.257 -0.9778 39.7635 -1.56952 39.7635C-2.16233 39.7635 -2.64139 39.2547 -2.64139 38.6315C-2.64139 38.0048 -2.16233 37.4984 -1.56952 37.4984C-0.9778 37.4984 -0.49655 38.0048 -0.49655 38.6315ZM2.03329 50.7039C2.03329 51.3294 1.55204 51.837 0.960325 51.837C0.367512 51.837 -0.112644 51.3294 -0.112644 50.7039C-0.112644 50.0772 0.366418 49.5708 0.960325 49.5708C1.55423 49.5708 2.03329 50.0772 2.03329 50.7039ZM8.3847 64.2887L10.0111 65.2819L8.3847 64.2887ZM5.79798 63.4643C5.79798 64.0898 5.31673 64.5974 4.72392 64.5974C4.1322 64.5974 3.65095 64.0898 3.65095 63.4643C3.65095 62.8376 4.13111 62.3312 4.72392 62.3312C5.31673 62.3312 5.79798 62.8376 5.79798 63.4643ZM8.3847 64.2887C8.43939 64.0239 8.46782 63.7453 8.46782 63.4643C8.46782 62.663 8.24251 61.9184 7.85423 61.2952C7.18376 60.2198 6.03204 59.5111 4.72283 59.5111C2.65564 59.5111 0.977825 61.2801 0.977825 63.4643C0.977825 65.6473 2.65564 67.4163 4.72283 67.4163C5.36923 67.4163 5.97736 67.2441 6.50782 66.9388L8.10251 67.9112L8.45251 68.1251L10.0122 69.0744V69.0767L10.8511 69.5878L11.0688 69.7196L11.2481 69.8283L26.9008 79.3685C33.763 87.7432 42.4069 94.6298 52.4617 99.3207V56.8852L41.3864 48.0075C39.3061 49.6517 36.7478 50.6646 33.9522 50.7663C26.6733 51.0358 20.5658 45.0221 20.3131 37.3365C20.2475 35.3917 20.5636 33.5278 21.1914 31.8189L-0.197957 14.5445L9.19626 31.4789C9.28267 34.521 9.54298 37.5377 9.96517 40.5104L17.6181 45.177V48.9233L5.00611 41.2331L2.09126 39.4559C2.14595 39.1888 2.17329 38.9125 2.17329 38.6315C2.17329 37.8302 1.94689 37.0856 1.5597 36.4624C0.890325 35.3871 -0.262488 34.6783 -1.57171 34.6783C-3.63889 34.6783 -5.31561 36.4473 -5.31561 38.6315C-5.31561 40.8145 -3.63889 42.5836 -1.57171 42.5836C-0.924207 42.5836 -0.317175 42.4113 0.214387 42.106L1.80798 43.0773L2.15798 43.2912L4.77314 44.8845L5.79142 45.5054L11.6605 49.0828C11.9711 50.2946 12.3091 51.4983 12.6733 52.6903L25.9208 60.7679V64.5153L7.53595 53.3066L4.62111 51.5283C4.67579 51.2635 4.70314 50.986 4.70314 50.7039C4.70314 49.9026 4.47673 49.158 4.08954 48.5348C3.42017 47.4595 2.26736 46.7507 0.958137 46.7507C-1.10905 46.7507 -2.78577 48.5198 -2.78577 50.7039C-2.78577 52.8869 -1.10905 54.656 0.958137 54.656C1.60564 54.656 2.21267 54.4837 2.74423 54.1784L4.33782 55.1508L4.68783 55.3648L7.30298 56.9592L8.32126 57.579L16.3964 62.5C17.0461 63.9198 17.7374 65.3178 18.4658 66.6914L28.4506 72.779V76.5264L11.247 66.0369V66.0358L10.0658 65.3178L8.3847 64.2887ZM25.246 34.9188L39.4997 46.5113C38.0231 47.6815 36.2075 48.403 34.2234 48.477C29.0708 48.6666 24.7483 44.4104 24.5689 38.9703C24.5219 37.5388 24.7669 36.1664 25.246 34.9188Z" fill="white"/>
</g>
<mask id="mask1_140_43" style="mask-type:luminance" maskUnits="userSpaceOnUse" x="52" y="9" width="53" height="91">
<path d="M52.4191 9.17603H105V99.3254H52.4191V9.17603Z" fill="white"/>
</mask>
<g mask="url(#mask1_140_43)">
<path fill-rule="evenodd" clip-rule="evenodd" d="M52.4606 56.8852L63.5359 48.0075C65.6163 49.6517 68.1756 50.6646 70.9702 50.7663C78.2491 51.0358 84.3577 45.0221 84.6103 37.3365C84.6749 35.3917 84.3588 33.5278 83.732 31.8189L105.119 14.5445L95.725 31.4789C94.897 60.628 78.3464 87.2414 52.4606 99.3207V56.8852ZM91.2494 20.1697L52.4606 51.2566V9.19916C65.8602 9.1691 79.2652 12.8252 91.2494 20.1697ZM79.6753 34.9188L65.4216 46.5113C66.8981 47.6815 68.7138 48.403 70.6978 48.477C75.8505 48.6666 80.173 44.4104 80.3524 38.9703C80.3994 37.5388 80.1544 36.1664 79.6753 34.9188Z" fill="#D9E7FF"/>
</g>
<mask id="mask2_140_43" style="mask-type:luminance" maskUnits="userSpaceOnUse" x="0" y="9" width="53" height="91">
<path d="M0 9.17828H52.6105V99.3253H0V9.17828Z" fill="white"/>
</mask>
<g mask="url(#mask2_140_43)">
<path fill-rule="evenodd" clip-rule="evenodd" d="M52.6378 56.9048L41.5712 48.0237C39.4931 49.6679 36.9359 50.6807 34.1436 50.7836C26.8712 51.0519 20.7681 45.0359 20.5155 37.348C20.4498 35.402 20.767 33.537 21.3926 31.8281L0.0240479 14.5468L9.41061 31.487C10.2375 60.6488 26.7739 87.2726 52.6378 99.3565V56.9048ZM13.8819 20.1742L52.6378 51.2739V9.1991C39.2492 9.16903 25.8551 12.8263 13.8819 20.1742ZM25.4461 34.9303L39.6878 46.5263C38.2123 47.6964 36.3978 48.4191 34.4159 48.4931C29.2676 48.6827 24.9484 44.4254 24.769 38.9829C24.722 37.5503 24.967 36.1779 25.4461 34.9303Z" fill="white"/>
</g>
</g>
<defs>
<clipPath id="clip0_140_43">
<rect width="105" height="111" fill="white"/>
</clipPath>
</defs>
</svg>
