<svg width="35" height="35" viewBox="0 0 35 35" fill="none" xmlns="http://www.w3.org/2000/svg">
<path d="M17.5 6.36853L31.0727 16.9239C31.1484 16.9827 31.2117 17.0559 31.2591 17.1391C31.3065 17.2224 31.337 17.3142 31.3489 17.4092C31.3608 17.5043 31.3539 17.6008 31.3285 17.6932C31.3032 17.7856 31.2598 17.872 31.201 17.9477C31.1423 18.0233 31.0691 18.0867 30.9859 18.1341C30.9026 18.1814 30.8108 18.212 30.7157 18.2239C30.6207 18.2358 30.5242 18.2289 30.4318 18.2035C30.3394 18.1781 30.2529 18.1348 30.1773 18.076L28.4375 16.7227V29.1667C28.4375 29.36 28.3607 29.5455 28.2239 29.6823C28.0872 29.819 27.9017 29.8958 27.7083 29.8958C27.5149 29.8958 27.3295 29.819 27.1927 29.6823C27.056 29.5455 26.9792 29.36 26.9792 29.1667V15.5881L17.5 8.21478L8.02083 15.5896V29.1667C8.02083 29.36 7.94401 29.5455 7.80727 29.6823C7.67052 29.819 7.48505 29.8958 7.29167 29.8958C7.09828 29.8958 6.91281 29.819 6.77607 29.6823C6.63932 29.5455 6.5625 29.36 6.5625 29.1667V16.7227L4.82271 18.076C4.66993 18.1948 4.47625 18.248 4.28426 18.2239C4.09226 18.1998 3.9177 18.1005 3.79896 17.9477C3.68022 17.7949 3.62703 17.6012 3.6511 17.4092C3.67517 17.2173 3.77452 17.0427 3.92729 16.9239L6.5625 14.875V10.9375C6.5625 10.5507 6.71615 10.1798 6.98964 9.90629C7.26313 9.6328 7.63406 9.47916 8.02083 9.47916H9.47917C9.86594 9.47916 10.2369 9.6328 10.5104 9.90629C10.7839 10.1798 10.9375 10.5507 10.9375 10.9375V11.4727L17.5 6.36853ZM9.47917 12.4687V10.9375H8.02083V13.5625L9.47917 12.4687Z" fill="white"/>
<path d="M15.3125 21.1458C15.1191 21.1458 14.9336 21.2227 14.7969 21.3594C14.6602 21.4961 14.5833 21.6816 14.5833 21.875V29.1667C14.5833 29.3601 14.5065 29.5455 14.3698 29.6823C14.233 29.819 14.0476 29.8958 13.8542 29.8958C13.6608 29.8958 13.4753 29.819 13.3386 29.6823C13.2018 29.5455 13.125 29.3601 13.125 29.1667V21.875C13.125 21.2948 13.3555 20.7384 13.7657 20.3282C14.1759 19.918 14.7323 19.6875 15.3125 19.6875H19.6875C20.2677 19.6875 20.8241 19.918 21.2343 20.3282C21.6445 20.7384 21.875 21.2948 21.875 21.875V29.1667C21.875 29.3601 21.7982 29.5455 21.6614 29.6823C21.5247 29.819 21.3392 29.8958 21.1458 29.8958C20.9524 29.8958 20.767 29.819 20.6302 29.6823C20.4935 29.5455 20.4167 29.3601 20.4167 29.1667V21.875C20.4167 21.6816 20.3398 21.4961 20.2031 21.3594C20.0664 21.2227 19.8809 21.1458 19.6875 21.1458H15.3125Z" fill="white"/>
</svg>
