<svg width="24" height="24" viewBox="0 0 24 24" fill="none" xmlns="http://www.w3.org/2000/svg">
<path d="M20.35 8.92299L19.984 8.71899L19.871 8.65499C19.5984 8.49137 19.3687 8.26512 19.201 7.99499C19.183 7.96799 19.167 7.93899 19.135 7.88299C18.9194 7.53692 18.8147 7.13322 18.835 6.72599L18.841 6.30099C18.853 5.62099 18.859 5.27899 18.763 4.97299C18.6781 4.70073 18.5359 4.44978 18.346 4.23699C18.132 3.99699 17.835 3.82499 17.24 3.48299L16.746 3.19799C16.154 2.85699 15.857 2.68599 15.542 2.62099C15.2637 2.5634 14.9763 2.56579 14.699 2.62799C14.386 2.69799 14.093 2.87399 13.508 3.22399L13.505 3.22599L13.151 3.43699C13.095 3.47099 13.066 3.48699 13.038 3.50299C12.76 3.65799 12.45 3.74299 12.131 3.75299C12.099 3.75499 12.066 3.75499 12.001 3.75499L11.871 3.75399C11.5519 3.74382 11.2399 3.65742 10.961 3.50199C10.933 3.48699 10.906 3.46999 10.85 3.43599L10.493 3.22199C9.904 2.86799 9.609 2.69199 9.294 2.62099C9.01565 2.55868 8.7272 2.55664 8.448 2.61499C8.132 2.68099 7.836 2.85299 7.243 3.19699L7.24 3.19799L6.752 3.48099L6.747 3.48499C6.159 3.82499 5.864 3.99699 5.652 4.23599C5.46308 4.44838 5.3216 4.69861 5.237 4.96999C5.142 5.27699 5.147 5.61899 5.159 6.30299L5.166 6.72699C5.166 6.79199 5.169 6.82399 5.168 6.85499C5.16282 7.21831 5.05876 7.57335 4.867 7.88199C4.834 7.93799 4.819 7.96599 4.802 7.99199C4.63339 8.26416 4.4019 8.49187 4.127 8.65599L4.015 8.71899L3.654 8.91899C3.052 9.25199 2.751 9.41899 2.533 9.65699C2.33918 9.86682 2.19256 10.1157 2.103 10.387C2.003 10.694 2.003 11.037 2.004 11.725L2.006 12.288C2.007 12.971 2.009 13.312 2.11 13.617C2.19918 13.8866 2.34475 14.134 2.537 14.343C2.755 14.579 3.053 14.745 3.65 15.077L4.008 15.276C4.069 15.31 4.1 15.326 4.129 15.344C4.44237 15.5318 4.6983 15.8019 4.869 16.125L4.936 16.245C5.10491 16.5639 5.18439 16.9226 5.166 17.283L5.159 17.69C5.147 18.376 5.142 18.72 5.238 19.027C5.323 19.299 5.465 19.55 5.655 19.763C5.869 20.003 6.167 20.174 6.761 20.517L7.255 20.802C7.848 21.143 8.144 21.314 8.459 21.379C8.7373 21.4366 9.02469 21.4342 9.302 21.372C9.616 21.302 9.909 21.126 10.496 20.774L10.85 20.562L10.963 20.496C11.241 20.342 11.551 20.256 11.87 20.246L12 20.245H12.13C12.448 20.255 12.76 20.342 13.04 20.497L13.132 20.552L13.508 20.778C14.098 21.132 14.392 21.308 14.707 21.378C14.9852 21.441 15.2737 21.4437 15.553 21.386C15.868 21.32 16.166 21.147 16.759 20.803L17.254 20.516C17.842 20.174 18.137 20.003 18.349 19.764C18.539 19.551 18.679 19.301 18.764 19.03C18.859 18.725 18.854 18.386 18.842 17.712L18.834 17.272V17.145C18.8387 16.7814 18.9424 16.426 19.134 16.117L19.199 16.007C19.3676 15.7348 19.5991 15.5071 19.874 15.343L19.984 15.282L19.986 15.281L20.347 15.081C20.949 14.747 21.25 14.581 21.469 14.343C21.663 14.133 21.809 13.883 21.898 13.613C21.998 13.308 21.998 12.966 21.996 12.286L21.994 11.712C21.993 11.029 21.992 10.687 21.891 10.382C21.8014 10.1127 21.6555 9.86555 21.463 9.65699C21.246 9.42099 20.948 9.25499 20.352 8.92399L20.35 8.92299Z" stroke="#D9E7FF" stroke-width="2" stroke-linecap="round" stroke-linejoin="round"/>
<path d="M8 12C8 13.0609 8.42143 14.0783 9.17157 14.8284C9.92172 15.5786 10.9391 16 12 16C13.0609 16 14.0783 15.5786 14.8284 14.8284C15.5786 14.0783 16 13.0609 16 12C16 10.9391 15.5786 9.92172 14.8284 9.17157C14.0783 8.42143 13.0609 8 12 8C10.9391 8 9.92172 8.42143 9.17157 9.17157C8.42143 9.92172 8 10.9391 8 12Z" stroke="#D9E7FF" stroke-width="2" stroke-linecap="round" stroke-linejoin="round"/>
</svg>
